#tb 0: 71/1000
0,          0,          0,        1,     7866, 0xab73dae7
0,          1,          1,        1,     7866, 0x100adec8
0,          2,          2,        1,     7866, 0x1a20ddfa
0,          3,          3,        1,     7866, 0xc358cd16
0,          4,          4,        1,     7866, 0xee0bd20e
0,          5,          5,        1,     7866, 0xef26bef9
0,          6,          6,        1,     7866, 0xa9d0c755
0,          7,          7,        1,     7866, 0x6c11cc7c
0,          8,          8,        1,     7866, 0x4d6ed988
0,          9,          9,        1,     7866, 0x9965cf24
0,         10,         10,        1,     7866, 0x9a12db24
0,         11,         11,        1,     7866, 0x2e85cfeb
